# xmcd
#
# Track frame offsets: 
#        150
#        14207
#        31077
#        51586
#        67006
#        80997
#        100212
#        114477
#        132794
#        146214
#        163594
#        185988
#
# Disc length: 2692 seconds
#
# Revision: 0
# Processed by: cddbd v1.5.2PL0 Copyright (c) Steve Scherf et al.
# Submitted via: ExactAudioCopy v0.99pb5
#
DISCID=ba0a820c
DTITLE=Pamela Nelson - Hope In The Lord
DYEAR=1995
DGENRE=Contemporary Christian
TTITLE0=Glory To You Lord
TTITLE1=Spiritually Dressed
TTITLE2=Close enough to hear your heartbeat
TTITLE3=Trust U
TTITLE4=Can God Use Me?
TTITLE5=Don't Forget The Cross
TTITLE6=Hope in The Lord
TTITLE7=Will you Pray For Me?
TTITLE8=Ever Over Me
TTITLE9=Tis So Sweet To Trust In Jesus
TTITLE10=I Don't Have To Know Why
TTITLE11=Proclaim His Name
EXTD=
EXTT0=
EXTT1=
EXTT2=
EXTT3=
EXTT4=
EXTT5=
EXTT6=
EXTT7=
EXTT8=
EXTT9=
EXTT10=
EXTT11=
PLAYORDER=
